<svg width="1268" height="434" viewBox="0 0 1268 434" fill="none" xmlns="http://www.w3.org/2000/svg" xmlns:xlink="http://www.w3.org/1999/xlink">
<path d="M167.053,215.832C100.131,147.844 61.878,110 0,110L0,0C109.824,0 179.061,70.802 235.802,128.827C239.056,132.154 242.27,135.44 245.448,138.668C307.538,201.748 367.9,258.994 471.33,276.798C516.076,284.5 557.706,273.472 604.938,249.084C628.822,236.75 653.072,221.562 679.422,204.394C685.588,200.376 691.912,196.22 698.366,191.98C718.768,178.574 740.458,164.322 762.536,150.889C821.276,115.149 889.382,80.916 970.816,69.401C1053.252,57.744 1144.644,69.977 1249.4,119.226L1202.6,218.774C1114.856,177.523 1044.998,170.006 986.216,178.318C926.43,186.771 873.35,212.226 819.714,244.86C799.42,257.208 779.984,269.978 759.958,283.134C753.216,287.564 746.404,292.04 739.472,296.556C712.638,314.04 684.506,331.796 655.406,346.822C596.668,377.152 529.924,398.5 452.67,385.202C312.1,361.006 230.462,280.252 167.053,215.832Z" clip-rule="evenodd" fill-rule="evenodd" fill="url(#pf_0_347_1416)"/>
<path d="M327.216,115L301.792,36.6L324.64,36.6L346.032,104.472L334.496,104.472L357.008,36.6L377.392,36.6L398.672,104.472L387.584,104.472L409.648,36.6L430.816,36.6L405.392,115L381.648,115L363.504,57.32L369.888,57.32L350.96,115L327.216,115Z" fill="#FFFFFF"/>
<path d="M491.178,36.6L513.354,36.6L513.354,115L491.178,115L491.178,36.6ZM460.938,115L438.762,115L438.762,36.6L460.938,36.6L460.938,115ZM492.746,84.424L459.37,84.424L459.37,66.056L492.746,66.056L492.746,84.424Z" fill="#FFFFFF"/>
<path d="M519.588,115L554.196,36.6L576.036,36.6L610.756,115L587.684,115L560.58,47.464L569.316,47.464L542.212,115L519.588,115ZM538.516,99.768L544.228,83.416L582.532,83.416L588.244,99.768L538.516,99.768Z" fill="#FFFFFF"/>
<path d="M629.794,115L629.794,54.184L605.714,54.184L605.714,36.6L675.938,36.6L675.938,54.184L651.97,54.184L651.97,115L629.794,115Z" fill="#FFFFFF"/>
<path d="M716.794,115L716.794,36.6L738.97,36.6L738.97,115L716.794,115Z" fill="#FFFFFF"/>
<path d="M782.298,116.568C775.876,116.568 769.68,115.784 763.706,114.216C757.808,112.574 752.992,110.483 749.258,107.944L756.538,91.592C760.048,93.832 764.08,95.699 768.634,97.192C773.264,98.611 777.856,99.32 782.41,99.32C785.472,99.32 787.936,99.059 789.802,98.536C791.668,97.939 793.012,97.192 793.834,96.296C794.73,95.326 795.178,94.206 795.178,92.936C795.178,91.144 794.356,89.726 792.714,88.68C791.072,87.635 788.944,86.776 786.33,86.104C783.716,85.432 780.804,84.76 777.594,84.088C774.458,83.416 771.284,82.558 768.074,81.512C764.938,80.467 762.064,79.123 759.45,77.48C756.836,75.763 754.708,73.56 753.066,70.872C751.424,68.11 750.602,64.638 750.602,60.456C750.602,55.752 751.872,51.496 754.41,47.688C757.024,43.88 760.906,40.819 766.058,38.504C771.21,36.19 777.632,35.032 785.322,35.032C790.474,35.032 795.514,35.63 800.442,36.824C805.444,37.944 809.888,39.624 813.77,41.864L806.938,58.328C803.204,56.312 799.508,54.819 795.85,53.848C792.192,52.803 788.644,52.28 785.21,52.28C782.148,52.28 779.684,52.616 777.818,53.288C775.952,53.886 774.608,54.707 773.786,55.752C772.964,56.798 772.554,57.992 772.554,59.336C772.554,61.054 773.338,62.435 774.906,63.48C776.548,64.451 778.676,65.272 781.29,65.944C783.978,66.542 786.89,67.176 790.026,67.848C793.236,68.52 796.41,69.379 799.546,70.424C802.756,71.395 805.668,72.739 808.282,74.456C810.896,76.099 812.986,78.302 814.554,81.064C816.196,83.752 817.018,87.15 817.018,91.256C817.018,95.811 815.712,100.03 813.098,103.912C810.56,107.72 806.714,110.782 801.562,113.096C796.484,115.411 790.064,116.568 782.298,116.568Z" fill="#FFFFFF"/>
<path d="M859.856,115L859.856,36.6L882.032,36.6L882.032,115L859.856,115Z" fill="#FFFFFF"/>
<path d="M914.496,115L914.496,54.184L890.416,54.184L890.416,36.6L960.64,36.6L960.64,54.184L936.672,54.184L936.672,115L914.496,115Z" fill="#FFFFFF"/>
<path d="M42,322.77C32.622,320.322 26.933,321.968 24.356,322.948C23.378,323.304 12.444,327.622 9.333,338.664C5.911,350.818 14.533,362.258 22.089,367.512C29.067,372.364 36.222,372.766 38.8,372.854C53.156,373.388 63.422,364.174 66,361.724C64.178,357.762 61.022,352.33 55.778,347.122C53.511,344.896 49.111,340.666 42.044,337.684C40.711,337.106 39.378,336.66 38,336.26C34.133,348.814 27.2,357.094 20.756,356.828C17.778,356.694 15.644,354.734 15.289,354.424C10.711,350.15 11.244,340.934 15.333,336.036C20.356,330.026 30,331.318 33.556,331.808C51.956,334.256 75.644,353.266 73.289,377.574C73.2,378.686 70.933,398.72 53.2,407.624C38.978,414.748 20.756,411.63 8,399.432C25.022,429.572 57.289,439.544 76.622,428.904C95.822,418.308 97.6,389.906 94.444,373.522C87.867,339.198 53.467,325.708 42,322.77Z" fill="#FFFFFF"/>
<path d="M84.311,153.284C88.489,155.911 92.133,163.568 95.689,174.297C70.844,199.762 60.756,272.908 44.978,318.852C52.267,320.9 59.333,323.704 65.511,328.112C71.111,332.164 76,336.972 80.133,342.448C84.044,333.81 86.444,323.392 86.444,311.194C86.444,305.586 85.956,299.576 84.933,293.342C84.044,288 83.022,282.256 81.911,275.98C96.311,292.54 113.867,294.5 126.889,325.262C131.956,337.016 141.556,343.382 157.333,343.382L178.444,343.382C158.489,289.914 156.978,203.814 143.6,174.742C135.067,156.311 117.378,153.284 84.311,153.284ZM79.378,245.262C79.511,225.05 83.778,203.28 98.578,184.091C107.778,218.016 114.889,269.926 118.667,293.254C102.489,278.384 79.378,273.932 79.378,245.262Z" fill="#FFFFFF"/>
<path d="M288.222,241.344C284.044,241.344 279.866,241.878 275.866,242.902C288.134,233.908 303.022,223.58 310.356,210.536C315.022,202.166 317.066,194.865 317.066,188.632C317.066,161.654 282.222,152.616 259.6,152.616C242.666,152.616 224.488,154.174 206.178,154.174C199.244,154.174 192.178,153.907 185.067,153.239C191.911,160.274 194.4,190.413 194.4,224.826C194.4,274.778 189.244,333.588 184.444,343.382C184.444,343.382 191.644,341.022 205.778,341.022C211.2,341.022 217.778,341.29 225.244,342.314C231.422,343.116 237.734,343.604 244.312,343.604C281.2,343.604 321.734,329.76 330.444,288.178C331.066,285.062 331.466,281.9 331.466,279.052C331.422,255.412 310.088,241.344 288.222,241.344ZM231.288,250.87C231.288,226.074 232.934,201.722 238.622,184.626C243.912,168.332 253.512,158.003 261.466,158.003C268.266,158.003 273.734,165.839 273.734,184.492L273.734,186.317C272.712,252.162 241.912,252.83 233.334,306.164C232.266,289.47 231.288,270.058 231.288,250.87ZM240.978,335.236L235.156,335.236C236.178,318.006 247.912,257.772 273.778,257.772C283.866,257.772 291.066,267.966 291.066,283.86C291.112,306.432 276.088,335.236 240.978,335.236Z" fill="#FFFFFF"/>
<path d="M429.022,149.5C412.488,149.5 395.556,155.777 380.666,169.979C385.956,168.821 391.156,168.287 396.088,168.287C437.244,168.287 462.488,205.194 474.622,244.326C479.422,259.596 481.422,272.908 481.422,284.216C481.422,315.246 466,331.54 446.578,331.54C408.312,331.54 378.266,275.712 370.444,228.61C368.8,218.684 368.178,210.982 368.178,205.282C368.178,194.865 370.444,190.547 373.734,190.547C382.712,190.547 398.978,221.088 398.978,245.44C398.978,249.356 398.622,253.142 397.6,256.658C424.622,251.984 435.378,235.778 435.378,218.95C435.378,196.646 416.8,173.184 392.178,173.184C385.244,173.184 378.044,175.009 370.444,179.194C349.244,190.947 338.134,222.778 338.134,251.182C338.134,312.886 381.556,343.782 425.156,343.782C468.578,343.782 512.044,312.886 512.044,251.182C512,191.259 471.556,149.5 429.022,149.5Z" fill="#FFFFFF"/>
<path d="M645.6,154.352C639.29,155.51 628.666,156.445 617.556,156.445C608.222,156.445 598.622,155.777 590.666,154.219C602.134,167.397 612.888,213.964 612.888,252.964C612.888,274.466 609.6,293.654 601.29,303.448C592.934,313.376 580.712,318.184 568.844,318.184C550.178,318.184 532.222,305.942 532.222,282.302C532.222,266.008 540.666,244.46 562.888,217.748C571.244,207.686 575.156,197.136 575.156,187.475C575.156,168.287 559.734,152.794 533.244,152.794C527.334,152.794 520.888,153.596 514.312,155.02C527.334,171.047 531.466,188.276 531.466,205.506C531.466,228.834 523.866,252.34 519.956,273.576C519.2,277.76 518.8,281.812 518.8,285.684C518.8,321.834 550.266,344.094 581.688,344.094C585.244,344.094 588.756,343.828 592.178,343.16C606.934,340.8 617.556,332.342 631.066,332.342C636.266,332.342 641.688,333.498 648,336.794C644.222,331.184 643.066,301.044 643.066,266.898C643.066,215.522 645.6,154.753 645.6,154.352Z" fill="#FFFFFF"/>
<path d="M764.888,197.136C790.534,197.136 806.044,183.068 806.044,169.489C806.044,156.846 792.666,144.558 761.466,144.558C733.822,144.558 702.356,157.202 682.934,157.202C672.312,157.202 664.356,153.685 660.844,143C656.178,153.551 654.044,162.945 654.044,171.047C654.044,191.126 667.066,202.878 684.844,202.878C700.622,202.878 720.088,193.619 737.512,172.605C750.4,157.202 763.156,151.859 773.112,151.859C784.622,151.859 792.578,159.161 792.578,166.862C792.578,175.321 783.112,184.225 758.622,184.225C680.312,184.225 716.044,307.856 692.444,345.964L758.356,345.964C750.8,318.184 741.688,275.668 741.688,243.168C741.688,216.946 747.6,197.136 764.888,197.136Z" fill="#FFFFFF"/>
<path d="M1133.59,154.887C1128.522,156.979 1122.834,157.736 1116.79,157.736C1103.634,157.736 1088.878,154.352 1075.768,154.352C1056.968,154.352 1039.768,162.054 1039.768,201.054C1039.768,218.282 1044.434,241.076 1051.9,257.416C1061.234,278.162 1064.79,292.898 1064.79,302.158C1064.79,309.992 1062.256,313.91 1058.878,313.91C1054.078,313.91 1047.412,306.342 1043.1,291.74C1031.634,251.94 1035.9,208.532 1020.878,178.393C1012.168,160.763 997.634,149.322 983.856,149.322C967.456,149.455 952.034,165.616 948.39,206.174C947.012,221.71 946.746,238.896 946.746,256.124L946.746,273.62C946.746,300.02 948.078,325.842 939.59,351.262C937.99,355.982 936.078,360.79 932.434,364.218C927.678,368.714 920.656,370.138 914.122,369.516C898.39,367.958 885.278,355.314 879.634,340.488C873.99,325.664 874.746,309.146 877.946,293.654C879.546,285.774 881.856,277.85 886.078,271.038C893.722,258.75 905.722,253.452 919.368,259.106C928.034,262.712 934.478,271.082 935.722,280.388C934.212,260.62 917.9,243.436 898.568,239.206C877.546,234.622 849.99,246.196 839.322,266.186C820.79,300.822 853.234,357.984 896.79,375.658C920.568,385.32 958.434,387.59 976.212,366.532C988.568,351.886 988.568,329.492 988.168,323.66C987.412,312.976 984.922,302.424 981.412,292.274C969.812,258.35 960.968,227.854 960.968,202.522C960.968,172.784 972.346,158.849 981.946,158.849C987.634,158.849 992.7,163.791 994.3,173.184C994.922,176.701 995.19,180.352 995.19,184.136C995.19,202.656 988.744,223.402 988.744,249.624C988.744,262.268 990.256,276.246 994.656,291.874C1003.012,321.478 1024.834,334.79 1043.546,334.79C1060.212,334.79 1074.478,324.106 1074.478,304.784C1074.478,289.38 1064.256,268.01 1059.322,255.368C1053.768,240.632 1047.856,215.21 1047.856,198.516C1047.856,179.862 1055.946,168.376 1064.922,168.376C1072.746,168.376 1081.322,177.102 1085.9,197.314C1090.212,216.368 1092.7,240.764 1092.7,264.494C1092.7,296.948 1088.034,328.29 1076.656,343.382L1136.122,343.382C1128.034,322.77 1124.122,283.638 1124.122,245.038C1124.122,210.18 1127.278,175.588 1133.59,154.887Z" fill="#FFFFFF"/>
<path d="M1224.39,299.664C1207.59,299.664 1193.19,290.938 1184.122,270.058C1180.834,262.758 1179.19,255.322 1179.19,249.18C1179.19,241.21 1182.078,235.6 1188.034,235.6C1191.546,235.6 1196.122,237.426 1201.9,242.012C1215.546,252.696 1229.544,258.706 1240.434,258.706C1252.168,258.706 1260.256,251.806 1260.256,236.402C1260.256,231.594 1259.368,225.984 1257.722,219.306C1251.278,227.41 1244.078,229.858 1236.744,229.858C1226.878,229.858 1216.434,225.406 1206.3,223.982C1203.9,223.714 1201.634,223.58 1199.5,223.58C1180.168,223.58 1172.078,236.224 1172.078,251.894C1172.078,257.504 1173.1,263.38 1174.968,269.258C1164.122,252.162 1158.568,230.926 1158.568,214.098C1158.568,194.643 1164.746,185.65 1173.99,185.65C1179.678,185.65 1186.746,188.633 1194.434,192.817C1206.034,198.961 1216.656,201.544 1226.122,201.544C1251.634,201.544 1267.678,182.355 1267.678,163.346C1267.678,157.202 1266.168,151.236 1262.612,145.849C1252.39,156.801 1232.434,158.226 1232.434,158.226C1228.878,158.626 1225.234,158.76 1221.322,158.76C1195.678,158.76 1164.39,151.192 1158.434,145.983C1160.834,152.616 1161.856,158.493 1161.856,163.835C1161.856,190.324 1137.5,203.236 1133.056,236.09C1132.434,240.676 1132.034,245.216 1132.034,249.802C1132.034,290.626 1156.168,330.916 1198.344,341.602C1203.412,342.892 1208.7,343.56 1213.768,343.56C1238.39,343.56 1261.234,328.958 1261.234,301.712C1261.234,297.66 1260.744,293.476 1259.722,288.936C1247.456,295.746 1235.368,299.664 1224.39,299.664Z" fill="#FFFFFF"/>
<defs>
<linearGradient id="pf_0_347_1416" x1="70.009" y1="-1.112" x2="1166.824" y2="95.677" gradientUnits="userSpaceOnUse">
<stop stop-color="#241F1F"/>
<stop offset="1" stop-color="#FFDD2D"/>
</linearGradient>
</defs>
</svg>
