<svg width="3454" height="850" viewBox="0 0 3454 850" fill="none" xmlns="http://www.w3.org/2000/svg" xmlns:xlink="http://www.w3.org/1999/xlink">
<rect  x="0" y="0" width="3454" height="850" rx="112" fill="#FFDD2D"/>
<path d="M3257.663,508L3222.149,508L3222.149,570.15L3160,570.15L3160,605.663L3222.149,605.663L3222.149,667.812L3257.663,667.812L3257.663,605.663L3319.812,605.663L3319.812,570.15L3257.663,570.15L3257.663,508Z" clip-rule="evenodd" fill-rule="evenodd" fill="#1E1E1E"/>
<path d="M3346.327,625.7L3321.372,625.7L3321.372,669.373L3277.699,669.373L3277.699,694.329L3321.372,694.329L3321.372,738.001L3346.327,738.001L3346.327,694.329L3390,694.329L3390,669.373L3346.327,669.373L3346.327,625.7Z" clip-rule="evenodd" fill-rule="evenodd" fill="#1E1E1E"/>
<path d="M3269.663,498L3234.149,498L3234.149,560.15L3172,560.15L3172,595.663L3234.149,595.663L3234.149,657.812L3269.663,657.812L3269.663,595.663L3331.812,595.663L3331.812,560.15L3269.663,560.15L3269.663,498Z" clip-rule="evenodd" fill-rule="evenodd" fill="#FFFFFF"/>
<path d="M3358.327,615.7L3333.372,615.7L3333.372,659.373L3289.699,659.373L3289.699,684.329L3333.372,684.329L3333.372,728.001L3358.327,728.001L3358.327,684.329L3402,684.329L3402,659.373L3358.327,659.373L3358.327,615.7Z" clip-rule="evenodd" fill-rule="evenodd" fill="#FFFFFF"/>
<path d="M1043.025,177.573L1035.049,177.844C995.441,178.93 957.283,184.178 917.674,184.178L901.269,183.997C915.59,197.48 920.937,257.652 920.937,326.602C920.937,426.77 910.061,545.306 900,565.484C919.85,563.584 939.971,562.226 960.727,562.226C979.036,562.226 997.344,563.312 1016.197,565.122C1010.124,559.784 1007.949,551.368 1007.949,540.962C1021.726,556.616 1038.493,563.222 1056.258,563.222C1101.396,563.222 1152.606,521.056 1173.906,479.976C1191.126,446.586 1200.19,406.502 1200.19,366.778C1200.19,271.678 1149.524,177.573 1043.025,177.573ZM1063.781,528.838C1054.446,537.614 1044.929,542.592 1036.681,542.592C1019.46,542.592 1006.136,521.87 1005.32,472.104L1001.604,275.116C1001.604,212.319 1013.84,188.703 1030.517,188.703C1032.602,188.703 1035.049,188.974 1037.134,189.788C1087.075,206.528 1116.26,288.96 1116.26,371.122C1116.35,432.922 1100.126,494.362 1063.781,528.838Z" fill="#FFFFFF"/>
<path d="M1491.77,480.88C1491.77,472.646 1490.682,464.14 1488.598,454.91C1462.856,468.664 1437.388,476.628 1414.274,476.628C1378.926,476.628 1348.654,458.892 1329.53,416.454C1322.64,401.614 1319.196,386.504 1319.196,374.016C1319.196,357.82 1325.27,346.419 1337.778,346.419C1345.21,346.419 1354.816,350.128 1366.962,359.448C1395.604,381.166 1425.152,393.38 1447.992,393.38C1472.646,393.38 1489.684,379.356 1489.684,348.048C1489.684,338.275 1487.782,326.874 1484.338,313.301C1470.832,329.769 1455.696,334.746 1440.288,334.746C1419.532,334.746 1397.506,325.698 1376.298,322.802C1371.222,322.259 1366.51,321.988 1361.978,321.988C1321.372,321.988 1304.332,347.686 1304.332,379.536C1304.332,390.938 1306.416,402.882 1310.404,414.826C1287.564,380.08 1275.872,336.918 1275.872,302.714C1275.872,263.172 1288.924,244.894 1308.23,244.894C1320.194,244.894 1335.058,250.957 1351.282,259.462C1375.754,271.949 1398.05,277.197 1417.9,277.197C1471.558,277.197 1505.274,238.198 1505.274,199.561C1505.274,187.074 1502.102,174.949 1494.67,164C1473.188,186.259 1431.224,189.155 1431.224,189.155C1423.792,190.06 1416.088,190.331 1407.84,190.331C1353.91,190.331 1288.108,174.949 1275.6,164.362C1280.676,177.844 1282.76,189.788 1282.76,200.647C1282.76,254.485 1231.55,280.726 1222.214,347.505C1220.856,356.824 1220.13,366.054 1220.13,375.374C1220.13,458.35 1270.886,540.238 1359.53,561.956C1370.134,564.58 1381.282,565.936 1391.888,565.936C1443.732,565.936 1491.77,536.258 1491.77,480.88Z" fill="#FFFFFF"/>
<path d="M1787.88,565.666L1908.972,565.666C1891.478,506.85 1882.688,436.27 1882.688,366.326C1882.688,300.362 1890.392,234.579 1904.984,179.202L1792.14,179.202C1806.734,234.579 1814.166,300.09 1814.166,366.054C1814.166,436.362 1805.374,507.122 1787.88,565.666Z" fill="#FFFFFF"/>
<path d="M2048.1,586.93C2054.988,586.93 2061.876,586.386 2068.856,584.848C2128.042,572.632 2141.638,531.01 2186.774,531.01C2196.836,531.01 2208.8,533.09 2223.12,538.158C2206.08,506.85 2204.268,464.502 2204.268,426.588L2204.268,399.534C2204.268,348.862 2154.87,325.607 2106.016,325.607C2080.276,325.607 2054.536,331.941 2036.408,344.157C2017.556,356.644 2009.85,374.108 2009.85,391.3C2009.85,423.874 2037.496,456.812 2068.04,456.812L2070.124,456.812C2085.26,399.806 2113.178,379.626 2137.286,379.626C2162.756,379.626 2184.508,401.614 2184.508,426.318C2184.508,447.038 2169.644,469.75 2129.31,483.594C2119.794,486.762 2109.098,488.39 2098.222,488.39C2037.132,488.39 1961.45,437.718 1961.45,332.484C1961.45,319.726 1962.538,306.243 1964.894,291.946C1970.242,260.096 1981.662,248.966 1996.8,248.966C2008.492,248.966 2022.54,255.571 2038.22,264.348C2061.332,277.559 2082.814,283.169 2101.938,283.169C2155.052,283.169 2190.128,239.917 2190.128,198.294C2190.128,186.35 2187.5,174.677 2181.336,164.09C2162.484,184.269 2123.964,191.96 2084.446,191.96C2035.592,191.96 1985.378,180.016 1968.974,164.633C1972.69,177.12 1974.322,188.522 1974.322,198.565C1974.322,257.652 1921.208,284.979 1908.7,356.554C1907.068,366.598 1906.344,377.456 1906.344,388.404C1906.344,478.8 1963.898,586.93 2048.1,586.93Z" fill="#FFFFFF"/>
<path d="M2565.91,189.517C2551.316,177.301 2532.464,171.51 2513.34,171.51C2473.732,171.51 2434.214,197.48 2434.214,247.337C2434.214,265.344 2439.562,286.608 2451.706,310.948C2483.34,372.75 2507.176,436.632 2507.176,490.11C2507.176,535.986 2489.14,557.43 2471.556,557.43C2455.06,557.43 2439.198,538.61 2439.198,503.05C2439.198,485.856 2444.002,464.592 2444.002,438.352C2444.002,369.402 2424.606,281.45 2393.064,230.507C2370.768,194.222 2338.138,171.148 2309.134,171.148C2274.874,171.148 2246.232,202.999 2246.232,283.803C2246.232,374.108 2273.876,479.522 2226.474,562.86C2222.758,569.466 2218.588,575.8 2214.146,581.952C2195.386,607.832 2170.914,629.548 2144.176,647.192C2040.758,715.6 1918.216,703.204 1918.216,703.204C1816.34,693.16 1748.544,640.678 1723.982,619.504C1718.18,614.618 1706.942,605.75 1691.352,597.336C1678.754,590.548 1665.248,585.12 1651.2,580.958C1652.378,577.338 1653.466,573.628 1654.554,570.008C1734.676,563.494 1787.88,503.592 1787.88,440.524C1787.88,369.222 1715.372,334.746 1637.332,314.568C1564.008,295.747 1536.454,276.112 1536.454,262.358C1536.454,250.957 1555.578,243.265 1582.95,243.265C1630.988,243.265 1705.13,266.882 1747.094,333.932C1775.01,312.215 1786.43,289.413 1786.43,268.149C1786.43,219.106 1726.7,177.754 1666.97,174.315C1663.526,174.044 1659.81,174.044 1656.366,174.044C1571.348,174.044 1504.186,231.321 1504.186,288.056C1504.186,318.549 1523.584,349.314 1570.08,370.76C1601.984,385.87 1643.678,400.168 1677.394,418.446C1713.014,437.538 1726.248,462.422 1726.248,484.952C1726.248,517.798 1697.606,546.482 1668.058,546.482C1665.52,546.482 1662.982,546.21 1660.626,545.758C1663.074,533.362 1664.886,520.874 1665.884,508.298C1667.786,483.414 1666.428,456.992 1653.012,436C1615.218,377.002 1510.35,397 1510.35,471.742C1510.35,484.952 1513.794,499.068 1522.042,513.636C1544.068,553.902 1595.368,570.642 1640.232,570.642C1642.318,570.642 1644.312,570.46 1646.306,570.37C1645.49,573.266 1644.764,576.07 1643.95,578.876C1534.278,550.282 1395.876,596.974 1373.398,669.994C1366.056,693.974 1370.316,723.382 1386.268,742.112C1417.356,778.488 1482.706,763.014 1491.406,760.57C1527.028,750.526 1557.662,727.092 1582.678,699.856C1612.498,667.28 1635.248,628.462 1649.568,586.748C1668.512,592.178 1686.458,599.778 1702.048,609.188C1719.36,619.594 1732.138,634.072 1746.732,647.736C1758.152,658.504 1770.298,668.548 1782.896,677.958C1817.248,703.566 1855.586,723.834 1896.374,737.044C1923.202,745.732 1951.118,751.25 1979.216,753.422C2003.688,755.322 2158.496,756.138 2268.982,644.478C2320.464,592.448 2359.982,519.066 2327.534,448.396C2305.51,399.624 2280.766,340.266 2273.604,287.784C2271.974,277.197 2271.248,267.063 2271.248,258.376C2271.248,212.5 2289.556,190.784 2307.14,190.784C2323.636,190.784 2339.498,209.876 2339.498,245.437C2339.498,262.448 2334.694,283.35 2334.694,309.32C2334.694,378.542 2353.818,467.036 2385.45,517.98C2408.02,553.992 2440.65,577.066 2469.924,577.066C2503.914,577.066 2532.556,545.216 2532.556,464.684C2532.556,430.48 2524.578,370.306 2524.578,314.387C2524.216,256.567 2532.736,203.814 2565.91,189.517ZM1616.124,642.758C1597,670.718 1552.044,736.774 1499.654,728.992C1475.454,725.372 1449.714,706.008 1445.272,681.668C1438.474,644.658 1483.612,612.446 1492.314,606.202C1535.094,575.618 1591.742,572.27 1641.864,584.848C1629.9,622.4 1616.124,642.758 1616.124,642.758ZM1614.31,502.326C1608.148,487.576 1593.192,442.604 1613.766,433.466C1623.374,429.214 1638.33,436 1646.85,444.958C1658.994,457.806 1659.266,475.632 1658.632,488.662C1657.726,508.84 1655.37,527.028 1652.288,543.496C1634.614,536.71 1621.29,519.156 1614.31,502.326Z" fill="#FFFFFF"/>
<path d="M1035.025,163.573L1027.049,163.844C987.441,164.93 949.283,170.178 909.674,170.178L893.269,169.997C907.59,183.48 912.937,243.652 912.937,312.602C912.937,412.77 902.061,531.306 892,551.484C911.85,549.584 931.971,548.226 952.727,548.226C971.036,548.226 989.344,549.312 1008.197,551.122C1002.124,545.784 999.949,537.368 999.949,526.962C1013.726,542.616 1030.493,549.222 1048.258,549.222C1093.396,549.222 1144.606,507.056 1165.906,465.976C1183.126,432.586 1192.19,392.502 1192.19,352.778C1192.19,257.678 1141.524,163.573 1035.025,163.573ZM1055.781,514.838C1046.446,523.614 1036.929,528.592 1028.681,528.592C1011.46,528.592 998.136,507.87 997.32,458.104L993.604,261.116C993.604,198.319 1005.84,174.703 1022.517,174.703C1024.602,174.703 1027.049,174.974 1029.134,175.788C1079.075,192.528 1108.26,274.96 1108.26,357.122C1108.35,418.922 1092.126,480.362 1055.781,514.838Z" fill="#000000"/>
<path d="M1483.77,466.88C1483.77,458.646 1482.682,450.14 1480.598,440.91C1454.856,454.664 1429.388,462.628 1406.274,462.628C1370.926,462.628 1340.654,444.892 1321.53,402.454C1314.64,387.614 1311.196,372.504 1311.196,360.016C1311.196,343.82 1317.27,332.419 1329.778,332.419C1337.21,332.419 1346.816,336.129 1358.962,345.449C1387.604,367.166 1417.152,379.38 1439.992,379.38C1464.646,379.38 1481.684,365.356 1481.684,334.048C1481.684,324.275 1479.782,312.874 1476.338,299.301C1462.832,315.769 1447.696,320.746 1432.288,320.746C1411.532,320.746 1389.506,311.698 1368.298,308.802C1363.222,308.259 1358.51,307.988 1353.978,307.988C1313.372,307.988 1296.332,333.686 1296.332,365.536C1296.332,376.938 1298.416,388.882 1302.404,400.826C1279.564,366.08 1267.872,322.918 1267.872,288.714C1267.872,249.172 1280.924,230.894 1300.23,230.894C1312.194,230.894 1327.058,236.957 1343.282,245.462C1367.754,257.949 1390.05,263.197 1409.9,263.197C1463.558,263.197 1497.274,224.198 1497.274,185.561C1497.274,173.074 1494.102,160.949 1486.67,150C1465.188,172.259 1423.224,175.155 1423.224,175.155C1415.792,176.06 1408.088,176.331 1399.84,176.331C1345.91,176.331 1280.108,160.949 1267.6,150.362C1272.676,163.844 1274.76,175.788 1274.76,186.647C1274.76,240.485 1223.55,266.726 1214.214,333.505C1212.856,342.825 1212.13,352.054 1212.13,361.374C1212.13,444.35 1262.886,526.238 1351.53,547.956C1362.134,550.58 1373.282,551.936 1383.888,551.936C1435.732,551.936 1483.77,522.258 1483.77,466.88Z" fill="#000000"/>
<path d="M1779.88,551.666L1900.972,551.666C1883.478,492.85 1874.688,422.27 1874.688,352.326C1874.688,286.362 1882.392,220.579 1896.984,165.202L1784.14,165.202C1798.734,220.579 1806.166,286.09 1806.166,352.054C1806.166,422.362 1797.374,493.122 1779.88,551.666Z" fill="#000000"/>
<path d="M2040.1,572.93C2046.988,572.93 2053.876,572.386 2060.856,570.848C2120.042,558.632 2133.638,517.01 2178.774,517.01C2188.836,517.01 2200.8,519.09 2215.12,524.158C2198.08,492.85 2196.268,450.502 2196.268,412.588L2196.268,385.534C2196.268,334.862 2146.87,311.607 2098.016,311.607C2072.276,311.607 2046.536,317.941 2028.408,330.157C2009.556,342.644 2001.85,360.108 2001.85,377.3C2001.85,409.874 2029.496,442.812 2060.04,442.812L2062.124,442.812C2077.26,385.806 2105.178,365.626 2129.286,365.626C2154.756,365.626 2176.508,387.614 2176.508,412.318C2176.508,433.038 2161.644,455.75 2121.31,469.594C2111.794,472.762 2101.098,474.39 2090.222,474.39C2029.132,474.39 1953.45,423.718 1953.45,318.484C1953.45,305.726 1954.538,292.243 1956.894,277.946C1962.242,246.096 1973.662,234.966 1988.8,234.966C2000.492,234.966 2014.54,241.571 2030.22,250.348C2053.332,263.559 2074.814,269.169 2093.938,269.169C2147.052,269.169 2182.128,225.917 2182.128,184.294C2182.128,172.35 2179.5,160.677 2173.336,150.09C2154.484,170.269 2115.964,177.96 2076.446,177.96C2027.592,177.96 1977.378,166.016 1960.974,150.633C1964.69,163.12 1966.322,174.522 1966.322,184.565C1966.322,243.652 1913.208,270.979 1900.7,342.553C1899.068,352.598 1898.344,363.456 1898.344,374.404C1898.344,464.8 1955.898,572.93 2040.1,572.93Z" fill="#000000"/>
<path d="M2557.91,175.517C2543.316,163.301 2524.464,157.51 2505.34,157.51C2465.732,157.51 2426.214,183.48 2426.214,233.337C2426.214,251.344 2431.562,272.608 2443.706,296.948C2475.34,358.75 2499.176,422.632 2499.176,476.11C2499.176,521.986 2481.14,543.43 2463.556,543.43C2447.06,543.43 2431.198,524.61 2431.198,489.05C2431.198,471.856 2436.002,450.592 2436.002,424.352C2436.002,355.402 2416.606,267.45 2385.064,216.507C2362.768,180.222 2330.138,157.148 2301.134,157.148C2266.874,157.148 2238.232,188.999 2238.232,269.803C2238.232,360.108 2265.876,465.522 2218.474,548.86C2214.758,555.466 2210.588,561.8 2206.146,567.952C2187.386,593.832 2162.914,615.548 2136.176,633.192C2032.758,701.6 1910.216,689.204 1910.216,689.204C1808.34,679.16 1740.544,626.678 1715.982,605.504C1710.18,600.618 1698.942,591.75 1683.352,583.336C1670.754,576.548 1657.248,571.12 1643.2,566.958C1644.378,563.338 1645.466,559.628 1646.554,556.008C1726.676,549.494 1779.88,489.592 1779.88,426.524C1779.88,355.222 1707.372,320.746 1629.332,300.568C1556.008,281.747 1528.454,262.112 1528.454,248.358C1528.454,236.957 1547.578,229.265 1574.95,229.265C1622.988,229.265 1697.13,252.882 1739.094,319.932C1767.01,298.215 1778.43,275.413 1778.43,254.149C1778.43,205.106 1718.7,163.754 1658.97,160.315C1655.526,160.044 1651.81,160.044 1648.366,160.044C1563.348,160.044 1496.186,217.321 1496.186,274.056C1496.186,304.549 1515.584,335.314 1562.08,356.76C1593.984,371.87 1635.678,386.168 1669.394,404.446C1705.014,423.538 1718.248,448.422 1718.248,470.952C1718.248,503.798 1689.606,532.482 1660.058,532.482C1657.52,532.482 1654.982,532.21 1652.626,531.758C1655.074,519.362 1656.886,506.874 1657.884,494.298C1659.786,469.414 1658.428,442.992 1645.012,422C1607.218,363.002 1502.35,383 1502.35,457.742C1502.35,470.952 1505.794,485.068 1514.042,499.636C1536.068,539.902 1587.368,556.642 1632.232,556.642C1634.318,556.642 1636.312,556.46 1638.306,556.37C1637.49,559.266 1636.764,562.07 1635.95,564.876C1526.278,536.282 1387.876,582.974 1365.398,655.994C1358.056,679.974 1362.316,709.382 1378.268,728.112C1409.356,764.488 1474.706,749.014 1483.406,746.57C1519.028,736.526 1549.662,713.092 1574.678,685.856C1604.498,653.28 1627.248,614.462 1641.568,572.748C1660.512,578.178 1678.458,585.778 1694.048,595.188C1711.36,605.594 1724.138,620.072 1738.732,633.736C1750.152,644.504 1762.298,654.548 1774.896,663.958C1809.248,689.566 1847.586,709.834 1888.374,723.044C1915.202,731.732 1943.118,737.25 1971.216,739.422C1995.688,741.322 2150.496,742.138 2260.982,630.478C2312.464,578.448 2351.982,505.066 2319.534,434.396C2297.51,385.624 2272.766,326.266 2265.604,273.784C2263.974,263.197 2263.248,253.063 2263.248,244.376C2263.248,198.5 2281.556,176.784 2299.14,176.784C2315.636,176.784 2331.498,195.876 2331.498,231.437C2331.498,248.448 2326.694,269.35 2326.694,295.32C2326.694,364.542 2345.818,453.036 2377.45,503.98C2400.02,539.992 2432.65,563.066 2461.924,563.066C2495.914,563.066 2524.556,531.216 2524.556,450.684C2524.556,416.48 2516.578,356.306 2516.578,300.387C2516.216,242.567 2524.736,189.814 2557.91,175.517ZM1608.124,628.758C1589,656.718 1544.044,722.774 1491.654,714.992C1467.454,711.372 1441.714,692.008 1437.272,667.668C1430.474,630.658 1475.612,598.446 1484.314,592.202C1527.094,561.618 1583.742,558.27 1633.864,570.848C1621.9,608.4 1608.124,628.758 1608.124,628.758ZM1606.31,488.326C1600.148,473.576 1585.192,428.604 1605.766,419.466C1615.374,415.214 1630.33,422 1638.85,430.958C1650.994,443.806 1651.266,461.632 1650.632,474.662C1649.726,494.84 1647.37,513.028 1644.288,529.496C1626.614,522.71 1613.29,505.156 1606.31,488.326Z" fill="#000000"/>
<path d="M247.851,78L212.337,78L212.337,140.15L150.188,140.15L150.188,175.663L212.337,175.663L212.337,237.812L247.851,237.812L247.851,175.663L310,175.663L310,140.15L247.851,140.15L247.851,78Z" clip-rule="evenodd" fill-rule="evenodd" transform="rotate(360 230.094 157.906)" fill="#1E1E1E"/>
<path d="M148.628,195.7L123.672,195.7L123.672,239.373L80,239.373L80,264.329L123.672,264.329L123.672,308.001L148.628,308.001L148.628,264.329L192.3,264.329L192.3,239.373L148.628,239.373L148.628,195.7Z" clip-rule="evenodd" fill-rule="evenodd" transform="rotate(360 136.15 251.85)" fill="#1E1E1E"/>
<path d="M235.851,68L200.337,68L200.337,130.15L138.188,130.15L138.188,165.663L200.337,165.663L200.337,227.812L235.851,227.812L235.851,165.663L298,165.663L298,130.15L235.851,130.15L235.851,68Z" clip-rule="evenodd" fill-rule="evenodd" transform="rotate(360 218.094 147.906)" fill="#FFFFFF"/>
<path d="M136.628,185.7L111.672,185.7L111.672,229.373L68,229.373L68,254.329L111.672,254.329L111.672,298.001L136.628,298.001L136.628,254.329L180.3,254.329L180.3,229.373L136.628,229.373L136.628,185.7Z" clip-rule="evenodd" fill-rule="evenodd" transform="rotate(360 124.15 241.85)" fill="#FFFFFF"/>
</svg>
