<svg width="1370" height="274" viewBox="0 0 1370 274" fill="none" xmlns="http://www.w3.org/2000/svg" xmlns:xlink="http://www.w3.org/1999/xlink">
<path d="M73.353,235.645C31.167,224.729 7.011,183.569 7.011,141.864C7.011,137.179 7.399,132.54 8.003,127.856C12.446,94.291 36.817,81.102 36.817,54.041C36.817,48.583 35.825,42.58 33.41,35.803C39.362,41.124 70.679,48.856 96.345,48.856C100.27,48.856 103.937,48.72 107.474,48.31C107.474,48.31 127.445,46.855 137.669,35.667C141.206,41.124 142.716,47.264 142.716,53.541C142.716,73.006 126.669,92.563 101.133,92.563C91.643,92.563 81.031,89.879 69.428,83.649C61.707,79.373 54.632,76.326 48.938,76.326C39.707,76.326 33.539,85.513 33.539,105.388C33.539,122.58 39.103,144.274 49.974,161.739C48.076,155.735 47.084,149.732 47.084,144.001C47.084,127.992 55.193,115.076 74.518,115.076C76.675,115.076 78.961,115.212 81.333,115.485C91.427,116.94 101.952,121.488 111.787,121.488C119.12,121.488 126.324,118.941 132.751,110.709C134.39,117.486 135.296,123.217 135.296,128.174C135.296,143.91 127.187,150.96 115.454,150.96C104.584,150.96 90.564,144.82 76.89,133.904C71.067,129.22 66.538,127.355 63.001,127.355C57.048,127.355 54.158,133.086 54.158,141.227C54.158,147.503 55.797,155.098 59.075,162.557C68.177,183.887 82.584,192.802 99.407,192.802C110.407,192.802 122.528,188.799 134.779,181.886C135.771,186.571 136.288,190.801 136.288,194.939C136.288,222.773 113.426,237.691 88.753,237.691C83.706,237.645 78.4,237.009 73.353,235.645Z" fill="#000000"/>
<path d="M152.076,218.453C152.076,192.484 174.334,155.69 203.02,141.682L202.502,140.227C186.326,103.57 167.476,59.863 148.41,43.626C151.3,43.217 156.994,42.671 163.593,42.671C173.558,42.671 185.593,43.854 193.271,48.129C215.14,60.409 228.9,93.837 242.704,129.403C253.186,120.079 258.75,102.615 258.75,85.286C258.75,66.776 252.324,48.493 238.778,40.898C251.548,36.213 262.676,33.985 271.26,33.985C291.362,33.985 299.558,45.582 299.558,61.182C299.558,87.56 276.048,125.537 246.37,138.726L246.888,140.181C263.064,176.702 289.118,220.683 308.184,237.055L280.016,236.783C278.636,236.919 277.126,237.055 275.704,237.055C242.704,237.055 224.414,196.168 206.944,151.779C197.714,161.375 192.926,177.748 192.926,194.03C192.926,212.815 199.482,231.461 213.026,239.193C199.396,245.741 188.655,248.517 180.028,248.517C160.79,248.607 152.076,234.189 152.076,218.453Z" fill="#000000"/>
<path d="M350.888,237.373L315.776,237.509C323.756,214.451 326.776,179.294 326.776,144.911C326.776,101.477 321.988,59.635 316.552,45.491C321.728,45.9 326.646,46.173 331.606,46.173C351.966,46.173 370.516,42.58 390.098,42.58C412.228,42.58 447.598,52.722 447.598,79.374C447.598,85.786 445.442,93.245 440.396,101.75C413.608,145.729 366.072,176.11 366.072,220.591C366.072,226.049 366.848,231.643 368.358,237.509L350.888,237.373ZM403.558,75.371C403.558,56.178 398.122,48.037 391.306,48.037L391.178,48.037C383.326,48.037 373.75,58.543 368.316,75.235C362.75,92.563 361.112,117.077 361.112,142.137C361.112,162.012 362.104,182.114 363.138,199.442C363.138,161.466 403.558,141.181 403.558,75.371Z" fill="#000000"/>
<path d="M508.852,235.645C466.622,224.729 442.508,183.524 442.508,141.864C442.508,137.179 442.896,132.54 443.5,127.856C447.944,94.291 472.316,81.102 472.316,54.041C472.316,48.583 471.324,42.58 468.908,35.803C474.86,41.124 506.178,48.856 531.842,48.856C535.768,48.856 539.434,48.72 542.972,48.31C542.972,48.31 562.944,46.855 573.166,35.667C576.704,41.124 578.214,47.264 578.214,53.541C578.214,73.006 562.168,92.563 536.63,92.563C527.142,92.563 516.53,89.879 504.926,83.649C497.204,79.373 490.13,76.326 484.436,76.326C475.206,76.326 469.038,85.513 469.038,105.388C469.038,122.58 474.602,144.274 485.472,161.739C483.574,155.735 482.582,149.732 482.582,144.001C482.582,127.992 490.692,115.076 510.016,115.076C512.172,115.076 514.46,115.212 516.832,115.485C526.926,116.94 537.45,121.488 547.286,121.488C554.618,121.488 561.822,118.941 568.25,110.709C569.888,117.486 570.794,123.217 570.794,128.174C570.794,143.91 562.684,150.96 550.952,150.96C540.082,150.96 526.062,144.82 512.388,133.904C506.566,129.22 502.036,127.355 498.498,127.355C492.546,127.355 489.656,133.086 489.656,141.227C489.656,147.503 491.296,155.098 494.574,162.557C503.676,183.887 518.082,192.802 534.906,192.802C545.906,192.802 558.026,188.799 570.276,181.886C571.268,186.571 571.786,190.801 571.786,194.939C571.786,222.773 548.924,237.691 524.25,237.691C519.204,237.645 513.898,237.009 508.852,235.645Z" fill="#000000"/>
<path d="M655.298,185.025C655.298,180.25 655.686,175.292 656.29,170.38C656.548,168.379 656.936,166.242 657.282,164.377C644.384,180.886 635.024,198.76 635.024,221.955C635.024,227.003 635.412,232.371 636.404,237.965C627.69,237.829 618.978,237.829 610.134,237.829L583.864,237.829C591.198,225.457 593.958,189.71 593.958,152.006C593.958,107.39 590.034,59.817 584.986,44.218C591.198,44.763 597.108,45.036 603.06,45.036C621.996,45.036 639.726,42.762 658.144,42.762L659.396,42.762C681.266,42.762 715.904,53.541 715.904,79.556C715.904,85.969 713.618,93.427 708.57,101.932C697.57,119.943 682.646,134.997 669.144,150.187C671.042,191.893 710.338,227.869 746.228,227.869C760.764,227.869 774.784,221.865 785.394,207.993C796.006,194.121 800.062,174.019 800.062,154.007C800.062,118.851 787.552,84.058 775.69,84.058C768.226,84.058 760.894,98.294 757.486,135.906C756.838,142.819 756.58,149.096 756.58,154.962C756.58,174.837 760.246,188.118 768.314,197.214L706.758,197.214C732.166,170.289 714.738,66.367 755.416,66.367C758.09,66.367 761.11,66.912 764.388,67.822C798.378,78.101 812.398,123.535 812.398,156.145C812.398,158.965 812.398,161.603 812.14,164.15C805.582,242.877 769.434,273.939 733.416,273.939C694.25,273.895 655.298,237.147 655.298,185.025ZM671.862,77.1L671.862,75.781C671.862,56.315 666.426,48.22 659.482,48.22L659.352,48.22C651.502,48.22 641.926,58.862 636.49,75.417C630.926,92.882 629.286,117.532 629.286,142.683C629.286,162.421 630.278,182.524 631.314,199.715C639.898,145.184 670.74,144.502 671.862,77.1ZM732.77,35.258C732.77,23.933 741.482,14.61 752.224,14.61C762.964,14.61 771.678,23.933 771.678,35.258C771.678,46.719 762.964,55.906 752.224,55.906C741.482,55.906 732.77,46.719 732.77,35.258Z" fill="#000000"/>
<path d="M887.714,235.645C845.484,224.729 821.37,183.524 821.37,141.864C821.37,137.179 821.758,132.54 822.362,127.856C826.806,94.291 851.178,81.102 851.178,54.041C851.178,48.583 850.184,42.58 847.77,35.803C853.722,41.124 885.038,48.856 910.704,48.856C914.63,48.856 918.296,48.72 921.834,48.31C921.834,48.31 941.806,46.855 952.028,35.667C955.566,41.124 957.076,47.264 957.076,53.541C957.076,73.006 941.028,92.563 915.492,92.563C906.002,92.563 895.392,89.879 883.788,83.649C876.066,79.373 868.992,76.326 863.298,76.326C854.068,76.326 847.898,85.513 847.898,105.388C847.898,122.58 853.464,144.274 864.334,161.739C862.436,155.735 861.444,149.732 861.444,144.001C861.444,127.992 869.552,115.076 888.878,115.076C891.034,115.076 893.32,115.212 895.694,115.485C905.786,116.94 916.312,121.488 926.148,121.488C933.48,121.488 940.684,118.941 947.112,110.709C948.75,117.486 949.656,123.217 949.656,128.174C949.656,143.91 941.546,150.96 929.814,150.96C918.944,150.96 904.924,144.82 891.25,133.904C885.426,129.22 880.898,127.355 877.36,127.355C871.408,127.355 868.518,133.086 868.518,141.227C868.518,147.503 870.156,155.098 873.436,162.557C882.536,183.887 896.944,192.802 913.768,192.802C924.766,192.802 936.888,188.799 949.138,181.886C950.13,186.571 950.648,190.801 950.648,194.939C950.648,222.773 927.786,237.691 903.112,237.691C898.066,237.645 892.76,237.009 887.714,235.645Z" fill="#000000"/>
<path d="M944.092,244.831C960.526,236.691 964.58,208.447 964.58,177.657C964.58,147.003 960.526,113.848 960.526,95.837C960.526,55.178 974.156,39.214 990.462,39.214C1004.222,39.214 1019.794,50.812 1030.406,69.049C1045.46,94.61 1054.648,138.862 1054.648,173.518C1054.648,186.707 1052.362,197.35 1052.362,206.037C1052.362,223.911 1059.954,233.371 1067.762,233.371C1076.086,233.371 1084.714,222.591 1084.714,199.533C1084.714,172.608 1073.326,140.499 1058.314,109.482C1052.492,97.202 1049.99,86.559 1049.99,77.509C1049.99,52.449 1068.84,39.396 1087.648,39.396C1096.748,39.396 1105.72,42.307 1112.666,48.447C1096.878,55.633 1092.824,82.148 1092.824,111.073C1092.824,139.18 1096.62,169.425 1096.62,186.616C1096.62,227.139 1082.988,243.103 1066.812,243.103C1052.922,243.103 1037.35,231.507 1026.61,213.405C1011.556,187.844 1002.454,143.319 1002.454,108.527C1002.454,95.474 1004.74,84.922 1004.74,76.417C1004.74,58.544 997.148,48.947 989.34,48.947C981.016,48.947 972.258,59.862 972.258,82.921C972.258,87.333 972.648,92.381 973.38,97.702C976.788,124.081 988.564,153.916 999.046,178.43C1004.74,191.483 1007.156,202.945 1007.156,212.677C1007.156,240.239 988.09,254.655 969.11,254.655C960.008,254.701 951.036,251.517 944.092,244.831Z" fill="#000000"/>
<path d="M1169.39,236.053C1128.584,225.139 1105.074,183.842 1105.074,142.136C1105.074,137.452 1105.462,132.813 1105.98,128.128C1110.294,94.564 1134.018,81.238 1134.018,54.177C1134.018,48.72 1133.026,42.716 1130.74,35.94C1136.564,41.124 1166.888,48.992 1191.778,48.992C1195.572,48.992 1199.24,48.72 1202.648,48.31C1202.648,48.31 1221.842,46.991 1231.98,35.667C1235.258,41.124 1236.768,47.401 1236.768,53.541C1236.768,64.183 1232.238,74.871 1224.128,82.33L1224,82.33C1223.008,83.285 1222.102,84.194 1221.11,84.877C1206.056,97.247 1178.016,118.441 1178.016,140.818C1178.016,147.23 1180.302,153.734 1185.996,160.147C1170.21,152.551 1162.746,139.226 1162.746,125.081C1162.746,112.711 1168.57,99.749 1179.31,89.925C1174.868,88.606 1170.338,86.468 1165.68,83.921C1158.218,79.646 1151.402,76.463 1145.838,76.463C1138.504,76.463 1133.328,81.92 1131.43,97.111C1131.042,99.931 1130.912,102.705 1130.912,105.752C1130.912,140.272 1152.394,192.756 1194.236,192.756C1204.588,192.756 1216.106,189.573 1229.004,182.114C1229.996,186.798 1230.514,191.028 1230.514,195.167C1230.514,223.001 1208.256,238.055 1184.4,238.055C1179.398,238.055 1174.35,237.373 1169.39,236.053Z" fill="#000000"/>
<path d="M1298.668,235.645C1256.438,224.729 1232.324,183.524 1232.324,141.864C1232.324,137.179 1232.714,132.54 1233.316,127.856C1237.76,94.291 1262.132,81.102 1262.132,54.041C1262.132,48.583 1261.14,42.58 1258.724,35.803C1264.676,41.124 1295.994,48.856 1321.658,48.856C1325.584,48.856 1329.25,48.72 1332.788,48.31C1332.788,48.31 1352.76,46.855 1362.982,35.667C1366.52,41.124 1368.03,47.264 1368.03,53.541C1368.03,73.006 1351.984,92.563 1326.446,92.563C1316.958,92.563 1306.346,89.879 1294.742,83.649C1287.02,79.373 1279.946,76.326 1274.252,76.326C1265.022,76.326 1258.854,85.513 1258.854,105.388C1258.854,122.58 1264.418,144.274 1275.288,161.739C1273.39,155.735 1272.398,149.732 1272.398,144.001C1272.398,127.992 1280.508,115.076 1299.832,115.076C1301.988,115.076 1304.276,115.212 1306.648,115.485C1316.742,116.94 1327.266,121.488 1337.102,121.488C1344.434,121.488 1351.638,118.941 1358.066,110.709C1359.704,117.486 1360.61,123.217 1360.61,128.174C1360.61,143.91 1352.5,150.96 1340.768,150.96C1329.898,150.96 1315.878,144.82 1302.204,133.904C1296.382,129.22 1291.852,127.355 1288.314,127.355C1282.362,127.355 1279.472,133.086 1279.472,141.227C1279.472,147.503 1281.112,155.098 1284.39,162.557C1293.492,183.887 1307.898,192.802 1324.722,192.802C1335.722,192.802 1347.842,188.799 1360.092,181.886C1361.084,186.571 1361.602,190.801 1361.602,194.939C1361.602,222.773 1338.74,237.691 1314.068,237.691C1309.064,237.645 1303.758,237.009 1298.668,235.645Z" fill="#000000"/>
<path d="M66.343,220.841C24.156,209.927 0,168.766 0,127.06C0,122.376 0.388,117.737 0.992,113.052C5.435,79.488 29.807,66.298 29.807,39.238C29.807,33.78 28.815,27.777 26.399,21C32.352,26.321 63.668,34.053 89.334,34.053C93.259,34.053 96.926,33.916 100.463,33.507C100.463,33.507 120.435,32.052 130.658,20.864C134.195,26.321 135.705,32.461 135.705,38.737C135.705,58.203 119.659,77.76 94.122,77.76C84.632,77.76 74.021,75.076 62.417,68.845C54.696,64.57 47.622,61.523 41.928,61.523C32.697,61.523 26.528,70.71 26.528,90.585C26.528,107.777 32.093,129.471 42.963,146.935C41.065,140.932 40.073,134.928 40.073,129.198C40.073,113.189 48.183,100.272 67.507,100.272C69.664,100.272 71.95,100.409 74.323,100.682C84.417,102.137 94.942,106.685 104.777,106.685C112.11,106.685 119.313,104.138 125.741,95.906C127.38,102.683 128.286,108.413 128.286,113.371C128.286,129.107 120.176,136.156 108.443,136.156C97.573,136.156 83.554,130.017 69.88,119.101C64.057,114.417 59.527,112.552 55.99,112.552C50.037,112.552 47.147,118.283 47.147,126.424C47.147,132.7 48.787,140.295 52.065,147.754C61.166,169.084 75.574,177.998 92.397,177.998C103.396,177.998 115.518,173.996 127.768,167.083C128.76,171.768 129.278,175.997 129.278,180.136C129.278,207.971 106.416,222.889 81.742,222.889C76.695,222.843 71.39,222.205 66.343,220.841Z" fill="#FFDD2D"/>
<path d="M145.066,203.651C145.066,177.681 167.324,140.887 196.009,126.879L195.491,125.424C179.315,88.766 160.465,45.06 141.399,28.823C144.289,28.414 149.983,27.868 156.583,27.868C166.547,27.868 178.582,29.051 186.26,33.326C208.13,45.605 221.89,79.034 235.694,114.599C246.176,105.276 251.74,87.811 251.74,70.483C251.74,51.973 245.314,33.69 231.768,26.094C244.536,21.41 255.666,19.181 264.25,19.181C284.35,19.181 292.546,30.779 292.546,46.379C292.546,72.757 269.038,110.733 239.36,123.923L239.878,125.378C256.054,161.899 282.108,205.879 301.174,222.251L273.006,221.979C271.626,222.115 270.116,222.251 268.692,222.251C235.694,222.251 217.404,181.365 199.934,136.976C190.703,146.572 185.915,162.945 185.915,179.227C185.915,198.01 192.472,216.657 206.016,224.389C192.386,230.939 181.645,233.713 173.018,233.713C153.779,233.803 145.066,219.387 145.066,203.651Z" fill="#FFDD2D"/>
<path d="M343.878,222.569L308.766,222.707C316.746,199.647 319.766,164.491 319.766,130.108C319.766,86.674 314.976,44.832 309.542,30.687C314.718,31.097 319.636,31.37 324.596,31.37C344.956,31.37 363.504,27.777 383.088,27.777C405.216,27.777 440.588,37.919 440.588,64.57C440.588,70.983 438.432,78.442 433.384,86.947C406.598,130.926 359.062,161.307 359.062,205.787C359.062,211.245 359.838,216.839 361.348,222.707L343.878,222.569ZM396.546,60.568C396.546,41.375 391.112,33.234 384.296,33.234L384.166,33.234C376.316,33.234 366.74,43.74 361.304,60.432C355.74,77.76 354.102,102.274 354.102,127.333C354.102,147.208 355.094,167.311 356.128,184.639C356.128,146.663 396.546,126.378 396.546,60.568Z" fill="#FFDD2D"/>
<path d="M501.842,220.841C459.612,209.927 435.498,168.72 435.498,127.06C435.498,122.376 435.886,117.737 436.49,113.052C440.934,79.488 465.306,66.298 465.306,39.238C465.306,33.78 464.312,27.777 461.898,21C467.85,26.321 499.166,34.053 524.832,34.053C528.758,34.053 532.424,33.916 535.962,33.507C535.962,33.507 555.934,32.052 566.156,20.864C569.694,26.321 571.204,32.461 571.204,38.737C571.204,58.203 555.156,77.76 529.62,77.76C520.13,77.76 509.52,75.076 497.916,68.845C490.194,64.57 483.12,61.523 477.426,61.523C468.196,61.523 462.026,70.71 462.026,90.585C462.026,107.777 467.592,129.471 478.462,146.935C476.564,140.932 475.572,134.928 475.572,129.198C475.572,113.189 483.68,100.272 503.006,100.272C505.162,100.272 507.448,100.409 509.822,100.682C519.914,102.137 530.44,106.685 540.274,106.685C547.608,106.685 554.812,104.138 561.238,95.906C562.878,102.683 563.784,108.413 563.784,113.371C563.784,129.107 555.674,136.156 543.942,136.156C533.072,136.156 519.052,130.017 505.378,119.101C499.554,114.417 495.026,112.552 491.488,112.552C485.536,112.552 482.646,118.283 482.646,126.424C482.646,132.7 484.284,140.295 487.564,147.754C496.664,169.084 511.072,177.998 527.896,177.998C538.894,177.998 551.016,173.996 563.266,167.083C564.258,171.768 564.776,175.997 564.776,180.136C564.776,207.971 541.914,222.889 517.24,222.889C512.194,222.843 506.888,222.205 501.842,220.841Z" fill="#FFDD2D"/>
<path d="M648.286,170.222C648.286,165.446 648.676,160.489 649.28,155.577C649.538,153.576 649.926,151.438 650.272,149.574C637.374,166.083 628.014,183.957 628.014,207.153C628.014,212.201 628.402,217.567 629.394,223.161C620.68,223.025 611.966,223.025 603.124,223.025L576.854,223.025C584.188,210.655 586.948,174.906 586.948,137.203C586.948,92.587 583.022,45.014 577.976,29.414C584.188,29.96 590.096,30.233 596.05,30.233C614.986,30.233 632.716,27.959 651.134,27.959L652.384,27.959C674.254,27.959 708.892,38.738 708.892,64.753C708.892,71.165 706.606,78.624 701.56,87.129C690.56,105.139 675.636,120.193 662.134,135.384C664.032,177.089 703.328,213.065 739.218,213.065C753.754,213.065 767.774,207.061 778.384,193.189C788.996,179.318 793.05,159.216 793.05,139.204C793.05,104.048 780.542,69.255 768.678,69.255C761.216,69.255 753.884,83.491 750.476,121.103C749.828,128.016 749.57,134.292 749.57,140.159C749.57,160.034 753.236,173.315 761.302,182.411L699.748,182.411C725.154,155.486 707.728,51.563 748.406,51.563C751.08,51.563 754.098,52.109 757.378,53.019C791.368,63.297 805.388,108.732 805.388,141.342C805.388,144.162 805.388,146.799 805.128,149.346C798.572,228.073 762.424,259.137 726.406,259.137C687.238,259.091 648.286,222.343 648.286,170.222ZM664.852,62.297L664.852,60.978C664.852,41.512 659.416,33.417 652.472,33.417L652.342,33.417C644.492,33.417 634.914,44.059 629.48,60.614C623.916,78.078 622.276,102.729 622.276,127.88C622.276,147.618 623.268,167.72 624.304,184.912C632.888,130.381 663.73,129.699 664.852,62.297ZM725.758,20.455C725.758,9.13 734.472,-0.193 745.214,-0.193C755.954,-0.193 764.668,9.13 764.668,20.455C764.668,31.916 755.954,41.103 745.214,41.103C734.472,41.103 725.758,31.916 725.758,20.455Z" fill="#FFDD2D"/>
<path d="M880.702,220.841C838.472,209.927 814.36,168.72 814.36,127.06C814.36,122.376 814.748,117.737 815.352,113.052C819.794,79.488 844.166,66.298 844.166,39.238C844.166,33.78 843.174,27.777 840.758,21C846.712,26.321 878.028,34.053 903.694,34.053C907.62,34.053 911.286,33.916 914.822,33.507C914.822,33.507 934.794,32.052 945.018,20.864C948.556,26.321 950.064,32.461 950.064,38.737C950.064,58.203 934.018,77.76 908.482,77.76C898.992,77.76 888.38,75.076 876.778,68.845C869.056,64.57 861.982,61.523 856.288,61.523C847.056,61.523 840.888,70.71 840.888,90.585C840.888,107.777 846.452,129.471 857.324,146.935C855.426,140.932 854.432,134.928 854.432,129.198C854.432,113.189 862.542,100.272 881.868,100.272C884.024,100.272 886.31,100.409 888.682,100.682C898.776,102.137 909.302,106.685 919.136,106.685C926.47,106.685 933.674,104.138 940.1,95.906C941.74,102.683 942.646,108.413 942.646,113.371C942.646,129.107 934.536,136.156 922.804,136.156C911.932,136.156 897.914,130.017 884.24,119.101C878.416,114.417 873.888,112.552 870.35,112.552C864.398,112.552 861.508,118.283 861.508,126.424C861.508,132.7 863.146,140.295 866.424,147.754C875.526,169.084 889.934,177.998 906.756,177.998C917.756,177.998 929.878,173.996 942.128,167.083C943.12,171.768 943.638,175.997 943.638,180.136C943.638,207.971 920.776,222.889 896.102,222.889C891.056,222.843 885.75,222.205 880.702,220.841Z" fill="#FFDD2D"/>
<path d="M937.08,230.029C953.516,221.887 957.57,193.644 957.57,162.854C957.57,132.2 953.516,99.045 953.516,81.034C953.516,40.375 967.146,24.411 983.452,24.411C997.212,24.411 1012.784,36.009 1023.396,54.246C1038.45,79.806 1047.638,124.059 1047.638,158.715C1047.638,171.904 1045.352,182.547 1045.352,191.233C1045.352,209.107 1052.944,218.567 1060.75,218.567C1069.076,218.567 1077.704,207.789 1077.704,184.73C1077.704,157.805 1066.316,125.696 1051.304,94.678C1045.48,82.399 1042.98,71.756 1042.98,62.706C1042.98,37.646 1061.83,24.593 1080.636,24.593C1089.738,24.593 1098.71,27.504 1105.656,33.644C1089.868,40.83 1085.812,67.345 1085.812,96.27C1085.812,124.377 1089.608,154.622 1089.608,171.813C1089.608,212.337 1075.978,228.301 1059.802,228.301C1045.912,228.301 1030.34,216.703 1019.6,198.601C1004.546,173.041 995.444,128.516 995.444,93.723C995.444,80.67 997.73,70.119 997.73,61.614C997.73,43.74 990.138,34.144 982.33,34.144C974.004,34.144 965.248,45.059 965.248,68.118C965.248,72.529 965.636,77.578 966.37,82.899C969.778,109.278 981.554,139.113 992.036,163.627C997.73,176.68 1000.146,188.141 1000.146,197.874C1000.146,225.435 981.08,239.853 962.1,239.853C952.998,239.897 944.026,236.715 937.08,230.029Z" fill="#FFDD2D"/>
<path d="M1162.38,221.251C1121.572,210.335 1098.064,169.039 1098.064,127.333C1098.064,122.649 1098.452,118.01 1098.97,113.325C1103.284,79.761 1127.008,66.435 1127.008,39.374C1127.008,33.916 1126.016,27.913 1123.73,21.136C1129.552,26.321 1159.878,34.189 1184.766,34.189C1188.562,34.189 1192.23,33.916 1195.636,33.507C1195.636,33.507 1214.832,32.188 1224.97,20.864C1228.248,26.321 1229.758,32.597 1229.758,38.737C1229.758,49.38 1225.228,60.068 1217.118,67.526L1216.99,67.526C1215.996,68.482 1215.09,69.391 1214.098,70.073C1199.044,82.444 1171.006,103.638 1171.006,126.014C1171.006,132.427 1173.292,138.931 1178.986,145.343C1163.198,137.748 1155.736,124.422 1155.736,110.278C1155.736,97.907 1161.56,84.945 1172.3,75.122C1167.858,73.803 1163.328,71.665 1158.67,69.118C1151.206,64.843 1144.392,61.659 1138.828,61.659C1131.494,61.659 1126.318,67.117 1124.42,82.308C1124.032,85.127 1123.902,87.902 1123.902,90.949C1123.902,125.469 1145.384,177.953 1187.226,177.953C1197.578,177.953 1209.096,174.769 1221.992,167.311C1222.984,171.995 1223.502,176.225 1223.502,180.363C1223.502,208.197 1201.244,223.251 1177.39,223.251C1172.386,223.251 1167.34,222.569 1162.38,221.251Z" fill="#FFDD2D"/>
<path d="M1291.656,220.841C1249.428,209.927 1225.314,168.72 1225.314,127.06C1225.314,122.376 1225.702,117.737 1226.306,113.052C1230.75,79.488 1255.12,66.298 1255.12,39.238C1255.12,33.78 1254.128,27.777 1251.714,21C1257.666,26.321 1288.982,34.053 1314.648,34.053C1318.574,34.053 1322.24,33.916 1325.778,33.507C1325.778,33.507 1345.75,32.052 1355.972,20.864C1359.51,26.321 1361.02,32.461 1361.02,38.737C1361.02,58.203 1344.972,77.76 1319.436,77.76C1309.946,77.76 1299.336,75.076 1287.732,68.845C1280.01,64.57 1272.936,61.523 1267.242,61.523C1258.012,61.523 1251.842,70.71 1251.842,90.585C1251.842,107.777 1257.408,129.471 1268.278,146.935C1266.38,140.932 1265.388,134.928 1265.388,129.198C1265.388,113.189 1273.496,100.272 1292.822,100.272C1294.978,100.272 1297.264,100.409 1299.638,100.682C1309.73,102.137 1320.256,106.685 1330.09,106.685C1337.424,106.685 1344.628,104.138 1351.054,95.906C1352.694,102.683 1353.6,108.413 1353.6,113.371C1353.6,129.107 1345.49,136.156 1333.758,136.156C1322.888,136.156 1308.868,130.017 1295.194,119.101C1289.37,114.417 1284.842,112.552 1281.304,112.552C1275.352,112.552 1272.462,118.283 1272.462,126.424C1272.462,132.7 1274.1,140.295 1277.38,147.754C1286.48,169.084 1300.888,177.998 1317.712,177.998C1328.71,177.998 1340.832,173.996 1353.082,167.083C1354.074,171.768 1354.592,175.997 1354.592,180.136C1354.592,207.971 1331.73,222.889 1307.056,222.889C1302.052,222.843 1296.746,222.205 1291.656,220.841Z" fill="#FFDD2D"/>
</svg>
